<svg xmlns="http://www.w3.org/2000/svg" viewBox="0 0 416.69 147.57"><defs><style>.cls-1{fill:#fd0000;}.cls-2{fill:#fcfcfc;}.cls-3{fill:#fbfbfb;}.cls-4{fill:#fafafa;}.cls-5{fill:#fef9f9;}</style></defs><title>Youtube Shorts Logo</title><g id="Layer_2" data-name="Layer 2"><g id="Layer_1-2" data-name="Layer 1"><path class="cls-1" d="M22.43,88.81c-2.71-1.56-5.14-3-7.55-4.35C7.73,80.31,2.42,74.37,1,66.25c-2.23-13-.18-24,13.63-32.3C32,23.54,49.63,13.62,67.2,3.59c17.21-9.83,39.92,1.6,42.47,21.29A28.91,28.91,0,0,1,94.92,54.53c-2.35,1.34-4.68,2.73-7.33,4.27,2.57,1.51,4.83,2.86,7.13,4.16,18.29,10.32,20.69,34.56,4.58,48-3.17,2.64-7,4.54-10.57,6.63-15.14,8.77-30.26,17.55-45.47,26.2A29,29,0,0,1,14,93.76C16.66,92.14,19.39,90.59,22.43,88.81Zm18.5,6.86L78.75,73.8,40.93,52Z"/><path class="cls-2" d="M192.48,125.3V19h16.46V58c.52-.78,1.24-1.94,2.05-3,5.53-7.41,17.51-8.69,23.27-2.23A19.43,19.43,0,0,1,237.91,60a27.84,27.84,0,0,1,1,7.9c.08,18.6,0,37.2,0,55.8,0,.48,0,1-.06,1.58H222V123c0-17.71,0-35.42,0-53.13a21.29,21.29,0,0,0-.7-5.46c-.77-2.83-3-4-5.86-3.48a7,7,0,0,0-6,7.28V125.3Z"/><path class="cls-3" d="M139.27,96.28h15.49c0,2.3-.11,4.67,0,7a26.2,26.2,0,0,0,.9,5.44c1.12,3.9,3.62,5.64,7.39,5.41s6.13-2.26,6.85-6.14c1.69-9-.85-16.81-7.4-23.17-4.41-4.28-9.09-8.27-13.59-12.46-11-10.21-12.64-23-9.49-36.76,1.62-7.13,6.56-11.51,13.61-13.36a36.85,36.85,0,0,1,17.25-.48c7.37,1.59,12.09,5.95,14.07,13.27,1.51,5.58,1.39,11.19.68,17l-15.07,1c-.28-4-.54-7.89-.84-11.74a12,12,0,0,0-.44-2.21c-1-3.73-3-5.26-6.57-5.23s-6.18,1.71-7,5.34c-1.75,7.75-.49,14.83,5.39,20.6,5.07,5,10.23,9.87,15.36,14.78,11.76,11.25,13.17,24.91,8.94,39.69-1.75,6.11-6.23,9.81-12.36,11.42a40.52,40.52,0,0,1-18.29.54c-8.9-1.75-13.67-6.81-15.13-15.79A46.14,46.14,0,0,1,139.27,96.28Z"/><path class="cls-3" d="M245.35,88.16c.58-7,.91-13.91,1.85-20.79a30.55,30.55,0,0,1,3.26-9.18c2.31-4.59,6.33-7.27,11.27-8.48a33.32,33.32,0,0,1,14.23-.3c8.63,1.63,13.17,7.45,14.88,15.52a86.91,86.91,0,0,1,1.73,15.43c.25,9.27.63,18.59-1.12,27.79a36.71,36.71,0,0,1-2.27,7.62,16.3,16.3,0,0,1-11.36,9.81,34,34,0,0,1-17.43,0c-8.3-2.22-12-8.57-13.19-16.34C246.13,102.27,245.94,95.21,245.35,88.16ZM275.82,88h-.4c0-5.6.16-11.2-.08-16.79a29.54,29.54,0,0,0-1.58-7.55,4.82,4.82,0,0,0-9,0,23.92,23.92,0,0,0-1.51,6.95q-.24,17.22,0,34.42a23.94,23.94,0,0,0,1.59,7.14,4.23,4.23,0,0,0,4.35,2.8,4.47,4.47,0,0,0,4.47-2.66,12.81,12.81,0,0,0,1.29-4.28C275.35,101.38,275.55,94.7,275.82,88Z"/><path class="cls-3" d="M373.93,102.42h14.18a70.77,70.77,0,0,0,1.47,8.35,6.24,6.24,0,0,0,7,4.47c4.91-.68,7.52-5.32,5-9.75a28,28,0,0,0-6-6.85c-4.36-3.82-9.15-7.16-13.45-11-8.06-7.29-9.59-16.54-7-26.64,1.51-5.87,5.69-9.36,11.46-10.89a34.41,34.41,0,0,1,16.84-.27c7.1,1.65,11.15,6.33,12.29,14.37.48,3.43.46,6.93.68,10.65l-7.38.36-6.92.34c-.41-3.37-.62-6.63-1.24-9.81-.69-3.54-2.73-5-6.08-4.76-4.16.24-6.18,2.66-5.94,6.94a11.19,11.19,0,0,0,4.39,8.46c4.6,3.66,9.32,7.16,13.87,10.87,4.29,3.5,8.3,7.49,9.13,13.18a44.12,44.12,0,0,1-.05,13.23c-1,6.24-5.23,10.21-11.27,12.07a33.37,33.37,0,0,1-18.79.32c-7.12-1.89-11.47-6.92-12.14-14.27C373.7,108.78,373.93,105.76,373.93,102.42Z"/><path class="cls-4" d="M358.2,63.54c0,15-.09,29.67,0,44.36.05,5.5,1.2,6.26,6.69,5.42,1.07-.16,2.12-.47,3.46-.78.69,3.59,1.37,7.16,2.07,10.87-6.77,2.71-13.54,3.87-20.59,2.52a8.11,8.11,0,0,1-6.73-6.43,53.65,53.65,0,0,1-1.35-10.92c-.15-14.15-.06-28.3-.06-42.44V63.69h-6V50.25c1.66,0,3.29-.1,4.9,0s2-.44,2.09-1.92c.52-6.27,1.17-12.52,1.78-18.77.05-.47.17-.93.27-1.49h12.54V50.23h11.4V63.54Z"/><path class="cls-4" d="M331.79,49.1c-.28,6.59-.55,13-.83,19.34-3.13,0-6-.2-8.93.09a10.32,10.32,0,0,0-4.24,1.88A5,5,0,0,0,315.61,75c.09,16,.05,32,.05,48v2.34H299.43V50.38h12.88c.52,5.43,1,10.76,1.53,16.09h.36A33.54,33.54,0,0,1,315.61,61,38.33,38.33,0,0,1,319.82,53C322.71,49.12,326.89,48.12,331.79,49.1Z"/><path class="cls-5" d="M40.93,95.67V52L78.75,73.8Z"/></g></g></svg>